<?xml version="1.0" standalone="no"?>
<!DOCTYPE svg PUBLIC "-//W3C//DTD SVG 20010904//EN"
 "http://www.w3.org/TR/2001/REC-SVG-20010904/DTD/svg10.dtd">
<svg version="1.0" xmlns="http://www.w3.org/2000/svg"
 width="1095.000000pt" height="1280.000000pt" viewBox="0 0 1095.000000 1280.000000"
 preserveAspectRatio="xMidYMid meet">
<metadata>
Created by potrace 1.15, written by Peter Selinger 2001-2017
</metadata>
<g transform="translate(0.000000,1280.000000) scale(0.100000,-0.100000)"
fill="#000000" stroke="none">
<path d="M7720 12710 c-28 -27 -58 -66 -67 -87 -16 -37 -16 -37 -23 -13 -6 22
-10 16 -28 -40 -11 -36 -21 -59 -21 -52 -3 48 -51 -58 -81 -176 -9 -36 -14
-41 -26 -32 -12 11 -14 7 -14 -23 0 -20 -5 -60 -11 -88 -10 -47 -13 -51 -24
-35 -11 15 -14 6 -20 -61 -3 -43 -7 -84 -8 -92 -3 -21 -58 62 -56 85 4 39 -2
89 -11 104 -9 13 -13 12 -29 -7 l-19 -23 -7 47 c-10 69 -51 146 -74 138 -14
-4 -21 5 -34 48 -17 55 -82 141 -98 131 -5 -3 -9 -14 -9 -25 0 -24 1 -24 -51
5 -24 13 -58 27 -76 31 l-32 6 5 -38 c9 -60 43 -159 65 -187 24 -30 21 -31
-28 -11 -20 8 -38 13 -41 11 -5 -5 47 -100 90 -163 36 -53 35 -60 -2 -33 -16
12 -30 17 -30 11 0 -5 5 -13 10 -16 15 -9 82 -146 76 -153 -3 -3 11 -26 31
-51 21 -25 30 -40 20 -32 -22 17 -21 11 3 -78 21 -75 35 -325 18 -315 -5 3 -8
-4 -8 -15 0 -12 -4 -21 -9 -21 -5 0 -12 -18 -16 -40 -4 -22 -10 -40 -14 -40
-4 0 -12 -12 -18 -27 l-11 -28 -1 31 c-2 61 -13 95 -28 90 -11 -5 -13 -1 -7
17 25 76 32 171 14 182 -6 4 -6 15 0 31 24 61 3 180 -30 171 -12 -3 -19 6 -28
37 -7 22 -19 50 -27 60 -15 19 -16 19 -50 -14 -19 -18 -43 -51 -53 -74 l-19
-40 -18 34 -18 35 -13 -39 c-30 -84 -38 -243 -18 -318 4 -13 1 -16 -11 -12
-14 6 -15 1 -9 -32 4 -22 12 -58 19 -81 7 -24 9 -43 4 -43 -5 0 -9 -10 -9 -22
-1 -21 -2 -20 -17 7 -16 30 -16 30 -26 7 -12 -27 -24 -28 -32 -2 -7 21 -81 77
-91 68 -15 -15 -15 -106 0 -142 15 -35 15 -38 0 -32 -14 6 -16 -2 -10 -61 4
-38 6 -86 6 -108 0 -22 7 -67 16 -100 8 -33 19 -83 24 -112 4 -29 17 -65 29
-81 11 -16 18 -32 14 -35 -6 -7 58 -107 81 -126 20 -17 20 -31 0 -31 -22 0
-11 -14 57 -70 55 -45 57 -49 33 -52 -24 -3 -24 -4 17 -35 41 -32 42 -33 15
-33 -25 0 -24 -2 26 -47 29 -26 51 -48 48 -48 -3 -1 2 -10 10 -20 9 -11 10
-16 3 -11 -20 11 -16 -3 17 -61 23 -41 27 -53 15 -53 -8 0 -15 -8 -15 -17 0
-16 -1 -16 -13 0 -7 10 -38 24 -70 33 -72 19 -337 152 -392 197 -22 18 -61 47
-86 65 -33 22 -52 44 -63 74 -10 24 -31 73 -48 111 l-31 67 -156 94 c-266 159
-407 215 -596 237 -168 20 -307 -11 -556 -121 l-112 -50 -57 57 c-31 32 -69
64 -83 72 -24 13 -29 11 -89 -32 -142 -101 -279 -275 -456 -581 -82 -142 -75
-138 -187 -111 -33 8 -67 15 -76 15 -19 0 -102 -116 -147 -205 -44 -88 -86
-214 -116 -350 -55 -244 -55 -245 -104 -292 -126 -123 -402 -186 -597 -138
-234 58 -465 275 -469 441 -1 45 3 57 24 76 20 19 21 19 7 2 -9 -11 -17 -28
-17 -37 0 -12 15 -2 47 30 27 27 47 53 45 59 -4 15 88 54 150 63 79 13 178
-15 178 -50 0 -18 -87 -90 -127 -105 -24 -9 -43 -21 -43 -26 0 -12 64 -38 95
-38 76 0 165 98 165 182 0 59 -27 95 -98 130 -64 32 -71 33 -187 33 -117 0
-122 -1 -195 -36 -41 -20 -97 -55 -123 -79 -82 -73 -96 -144 -51 -253 96 -228
387 -468 672 -552 l63 -18 -26 -27 c-32 -33 -31 -38 2 -42 27 -3 25 -5 -25
-37 -43 -27 -73 -37 -169 -53 -379 -64 -656 -245 -710 -462 -13 -54 -14 -76
-4 -123 10 -51 46 -123 62 -123 3 0 6 33 5 73 0 67 3 77 39 137 52 87 104 141
189 197 74 49 174 86 264 98 l52 7 -55 -74 c-160 -213 -224 -500 -136 -616 17
-24 18 -23 36 65 45 223 86 334 169 463 56 85 113 149 186 205 73 56 120 79
248 122 59 20 112 39 117 43 23 18 195 41 362 49 187 9 301 3 253 -13 -44 -15
-222 -116 -325 -184 -311 -208 -598 -511 -714 -756 -39 -81 -71 -203 -71 -271
0 -134 78 -253 193 -292 22 -8 41 -12 43 -10 2 2 -7 35 -20 74 -26 72 -46 200
-46 288 0 37 8 63 30 102 16 28 34 55 40 58 6 4 -3 -18 -20 -49 -36 -64 -55
-171 -27 -161 8 4 29 33 46 65 64 120 143 212 308 357 45 39 77 73 70 76 -6 2
9 17 34 34 82 56 95 57 39 2 -132 -129 -244 -317 -291 -489 -20 -73 -23 -109
-24 -255 0 -188 11 -247 82 -429 68 -173 176 -316 240 -316 57 0 113 66 139
163 8 28 14 58 14 64 0 7 -31 -20 -69 -59 l-68 -72 -27 17 c-54 36 -100 175
-109 337 -4 58 -3 85 2 70 5 -14 9 -38 10 -54 2 -61 14 -12 31 131 31 248 91
405 217 570 32 42 53 79 50 87 -3 8 0 19 6 24 14 12 117 52 117 46 0 -2 -18
-50 -41 -106 -25 -63 -46 -138 -55 -193 -15 -99 -19 -235 -6 -235 4 0 19 33
31 73 33 101 174 421 165 372 -5 -22 -8 -112 -9 -200 l0 -160 -42 -80 c-93
-180 -97 -289 -12 -373 l41 -40 -51 -78 c-67 -103 -112 -213 -119 -291 -6 -78
22 -141 81 -184 51 -37 68 -38 29 -1 -91 85 -26 249 185 461 58 58 102 97 98
86 -4 -11 -18 -49 -32 -85 -35 -94 -41 -198 -14 -276 l20 -61 -42 -80 c-75
-142 -85 -158 -134 -219 -55 -67 -113 -176 -113 -212 0 -28 16 -61 42 -82 16
-13 17 -20 7 -54 -15 -54 -5 -84 36 -103 23 -11 38 -27 46 -50 13 -39 43 -63
80 -63 23 0 28 -5 33 -35 4 -22 17 -41 33 -52 24 -16 27 -16 77 10 28 15 66
41 84 58 l34 32 40 -23 c23 -13 60 -28 82 -35 l41 -12 12 -99 c21 -162 56
-246 152 -366 33 -41 79 -87 101 -102 23 -15 40 -29 38 -31 -10 -10 -290 -39
-378 -39 -150 -1 -270 39 -413 135 l-57 39 -88 -8 c-81 -8 -89 -7 -122 14 -47
30 -95 41 -218 48 -71 5 -108 3 -117 -4 -11 -9 -33 -8 -91 4 -42 9 -88 16
-103 15 -14 0 22 -11 80 -24 58 -13 129 -33 157 -43 58 -22 66 -21 25 3 l-28
16 40 -5 c21 -3 52 -15 67 -26 15 -11 28 -16 28 -11 0 6 -18 20 -40 31 -22 11
-40 23 -40 27 0 15 162 -6 206 -27 58 -28 49 -33 -79 -49 l-99 -11 -217 65
c-359 107 -586 157 -853 186 -90 10 -125 10 -156 1 -22 -7 -57 -12 -78 -12
-25 0 -34 -3 -26 -9 16 -10 -33 -33 -76 -36 -15 -1 -36 -3 -47 -4 -18 -3 -18
-3 2 -9 20 -6 9 -16 -79 -76 l-101 -68 -58 6 c-67 8 -119 24 -119 37 0 5 14
15 30 24 17 9 30 18 30 21 0 13 -84 -43 -88 -59 -3 -11 -11 -16 -21 -13 -34
11 -102 9 -113 -2 -7 -7 -10 -12 -8 -12 3 -1 49 -5 103 -9 82 -6 102 -11 120
-30 12 -12 18 -21 12 -20 -5 1 -17 -1 -25 -4 -8 -4 -73 -20 -145 -37 -71 -17
-152 -39 -180 -50 -27 -10 -95 -31 -150 -46 -117 -31 -323 -100 -415 -138 -36
-15 -74 -29 -84 -31 -32 -7 -159 -70 -217 -108 -77 -49 -149 -117 -149 -140 0
-11 -10 -36 -22 -55 -12 -20 -21 -48 -20 -64 2 -18 -9 -42 -31 -71 -35 -46
-84 -154 -74 -164 3 -3 28 11 55 31 51 37 92 49 99 30 2 -6 -11 -17 -29 -24
-18 -8 -63 -45 -100 -83 -68 -70 -68 -70 -68 -39 0 17 11 62 25 99 29 81 27
94 -4 22 -26 -60 -48 -165 -37 -176 4 -5 38 24 74 63 74 78 111 102 166 106
39 2 44 9 21 28 -8 7 -15 16 -15 20 0 5 16 -8 35 -27 41 -41 46 -31 -61 -143
-133 -140 -193 -232 -214 -326 -15 -67 -7 -88 39 -109 38 -17 72 -63 71 -97
-1 -7 -21 -28 -46 -46 -96 -71 -126 -169 -88 -296 9 -33 19 -63 20 -65 2 -2
22 13 45 33 50 42 124 66 206 66 l59 0 -4 -36 c-10 -84 43 -238 126 -366 40
-62 48 -68 56 -40 3 10 29 40 58 67 29 28 44 39 33 26 l-20 -25 25 17 c14 10
25 22 25 28 0 7 11 18 25 27 l25 14 -25 -21 c-30 -24 -20 -28 15 -5 14 9 23
20 20 24 -3 5 0 12 6 16 8 4 9 3 5 -4 -12 -19 0 -14 61 25 32 21 62 36 67 35
5 -2 6 4 3 13 -14 35 15 11 67 -57 53 -68 55 -73 48 -112 -4 -23 -7 -113 -6
-201 0 -124 5 -174 19 -220 40 -134 121 -253 205 -302 19 -11 62 -37 94 -57
33 -20 63 -36 68 -36 4 0 10 11 14 25 6 24 8 25 28 10 11 -9 47 -33 78 -54 31
-21 55 -41 52 -43 -8 -8 87 -45 149 -58 31 -6 92 -11 135 -10 42 1 82 2 89 1
6 -1 44 -28 85 -61 40 -33 77 -59 83 -57 5 2 14 18 19 35 10 36 11 36 87 23
155 -27 434 -30 629 -6 241 29 587 15 828 -35 54 -11 192 -44 307 -74 198 -52
258 -64 330 -70 17 -1 35 -5 42 -9 6 -4 14 -3 18 3 4 6 11 7 18 3 6 -4 24 -8
40 -10 16 -2 57 -16 91 -32 139 -66 205 -88 390 -132 72 -17 230 -55 351 -85
401 -97 635 -140 1010 -184 50 -5 108 -12 130 -15 101 -14 404 -17 485 -6 47
7 105 14 130 15 25 2 63 8 85 14 97 26 177 42 186 36 5 -3 16 0 24 6 8 7 39
13 68 14 30 2 64 10 77 19 16 11 28 13 35 7 8 -6 19 -3 32 10 12 10 24 16 27
13 3 -4 6 -1 6 6 0 7 5 9 10 6 9 -6 14 8 11 28 0 4 4 7 9 7 14 0 1 49 -19 76
-15 20 -60 37 -131 48 -96 16 -100 19 -100 77 0 46 29 83 67 86 86 6 258 2
291 -7 60 -16 67 -39 67 -225 1 -132 4 -167 19 -202 10 -24 24 -43 31 -43 7 0
23 16 35 35 24 39 32 42 50 20 7 -8 16 -12 21 -9 5 3 9 -5 9 -18 0 -18 -2 -20
-10 -8 -7 11 -10 0 -10 -39 0 -46 2 -52 17 -47 9 4 20 1 24 -6 5 -8 19 13 40
60 18 39 38 72 46 72 7 0 39 13 71 29 83 42 174 138 221 232 39 77 39 77 62
62 13 -9 36 -27 51 -41 l27 -24 15 53 c36 120 11 334 -66 558 -31 91 -32 94
-13 107 22 16 75 19 75 4 0 -5 9 -10 19 -10 21 0 122 -64 134 -86 4 -8 15 -14
22 -14 11 0 15 13 15 49 0 67 -44 146 -139 250 -93 102 -109 123 -93 129 7 2
10 8 6 13 -8 14 13 11 46 -6 37 -19 39 -28 4 -14 -15 5 -29 8 -31 5 -6 -5 10
-18 82 -66 35 -23 78 -65 105 -100 56 -76 65 -65 55 63 -13 172 -69 335 -172
504 -36 60 -74 122 -85 139 -10 18 -28 65 -39 105 -23 84 -39 113 -114 213
-118 157 -306 258 -592 315 -146 30 -420 68 -578 82 -122 10 -145 15 -177 37
-44 29 -50 59 -13 68 25 6 156 -29 183 -49 7 -6 15 -8 17 -5 7 7 -25 49 -34
44 -4 -3 -28 15 -52 40 -55 58 -120 106 -231 173 -89 53 -110 70 -60 48 87
-39 198 -109 270 -170 l37 -31 -30 33 c-43 47 -183 138 -303 196 -56 27 -102
55 -102 62 0 10 -16 11 -62 7 -228 -21 -346 -52 -471 -124 -74 -42 -90 -48
-94 -33 -1 4 16 17 40 27 23 11 69 45 103 77 66 62 96 75 194 83 116 10 156
30 187 90 21 40 24 132 8 201 -7 30 -13 57 -13 58 0 20 -37 164 -43 168 -5 3
27 20 70 37 145 59 202 106 290 235 18 27 54 67 79 90 74 66 129 125 207 222
83 104 268 359 290 402 l15 28 0 -30 c0 -103 -54 -335 -100 -424 -44 -88 -79
-90 -120 -6 -12 25 -26 43 -31 39 -13 -8 -10 -153 4 -194 7 -19 24 -41 39 -49
24 -14 30 -14 64 3 28 13 35 14 26 3 -15 -18 3 -27 51 -27 92 0 211 99 272
224 33 69 115 323 115 359 0 15 3 15 20 5 10 -7 22 -10 25 -6 6 6 34 118 55
221 11 55 12 57 44 57 18 0 55 -11 82 -25 61 -31 74 -31 75 -2 3 51 18 -64 18
-140 1 -72 11 -106 27 -90 3 3 12 42 20 88 9 46 17 93 20 105 3 17 9 20 34 16
43 -6 54 -33 47 -115 -4 -40 -2 -78 4 -89 9 -16 6 -18 -26 -18 -30 0 -35 -3
-35 -24 0 -21 9 -28 57 -46 145 -54 247 -64 320 -30 40 18 54 34 109 126 9 16
14 14 52 -20 55 -51 89 -114 97 -183 13 -114 31 -123 51 -27 44 203 41 327
-12 469 -7 19 -7 19 13 2 32 -28 71 -109 89 -183 17 -76 13 -166 -12 -236 -29
-84 14 -71 55 16 33 70 51 146 51 215 0 114 -72 296 -159 400 l-38 46 42 84
43 85 7 -35 c4 -19 18 -68 31 -110 47 -151 92 -167 186 -68 32 33 58 64 58 69
0 14 -40 18 -70 7 -21 -8 -36 -8 -48 -1 -30 18 -64 101 -70 170 l-5 65 24 -11
c20 -9 36 -7 81 10 60 22 80 45 47 55 -38 12 -77 55 -99 109 l-21 54 31 158
c37 188 91 385 104 381 35 -12 96 -208 96 -309 0 -81 19 -75 63 20 56 124 78
206 84 322 7 127 -13 247 -60 365 -31 76 -32 82 -19 120 9 27 12 68 9 126 -5
94 -33 171 -85 239 -15 19 -29 50 -31 69 -1 18 -9 52 -17 74 -31 89 19 45 117
-102 39 -57 81 -124 94 -150 13 -25 34 -59 47 -75 22 -26 28 -28 65 -21 35 5
43 12 52 37 23 66 10 157 -53 375 -20 67 -36 136 -36 153 0 28 2 30 39 30 59
0 70 21 37 70 -24 37 -107 99 -132 100 -11 0 -62 50 -51 50 13 0 171 -102 201
-129 47 -43 87 -142 96 -240 9 -98 16 -121 36 -121 20 0 59 65 84 140 17 50
20 77 15 120 -12 99 -35 134 -197 297 -129 130 -148 154 -137 166 8 8 21 16
28 18 8 3 20 21 27 40 7 19 13 27 13 19 1 -8 22 -28 49 -43 26 -15 62 -37 79
-48 41 -26 58 -17 36 19 -16 25 -15 25 15 -5 17 -17 32 -41 32 -53 0 -12 12
-51 26 -86 14 -36 29 -92 34 -125 5 -34 20 -84 33 -113 30 -63 77 -205 77
-229 0 -14 5 -17 20 -12 15 5 20 2 20 -13 0 -11 9 -30 20 -43 l20 -24 25 30
c38 45 58 95 60 145 1 25 7 55 13 66 19 37 27 181 18 364 -7 171 -18 241 -44
277 -12 17 -36 66 -53 109 -17 44 -40 88 -50 100 -10 11 -19 24 -19 30 0 5 15
-9 34 -30 l33 -40 59 13 c99 22 103 24 98 68 -3 21 -5 74 -5 118 0 61 -5 88
-19 113 -12 20 -20 51 -20 79 0 44 -3 50 -74 120 -40 41 -69 76 -64 79 5 3 7
11 5 17 -2 7 2 19 10 28 25 29 20 79 -10 105 -16 13 -24 29 -21 38 3 8 -10 32
-33 57 -38 42 -75 108 -67 120 2 4 37 14 76 22 40 8 98 20 128 26 30 7 77 13
104 15 56 3 81 25 92 83 11 58 -33 111 -106 130 -14 3 -43 22 -65 42 -22 20
-60 45 -85 55 -141 59 -213 96 -227 116 -8 12 -13 23 -12 24 9 7 181 77 244
100 39 13 113 34 165 46 52 12 100 26 107 31 6 6 39 14 73 20 79 12 130 34
130 53 0 9 -12 19 -26 22 -21 5 -24 11 -19 28 18 56 17 62 -8 73 -14 7 -54 17
-89 24 -35 6 -97 20 -139 30 -41 10 -96 19 -122 19 -32 0 -46 4 -45 12 2 7
-19 20 -47 30 -58 20 -235 24 -330 7 -33 -5 -85 -10 -116 -10 -30 1 -89 -8
-130 -19 -41 -11 -78 -20 -84 -20 -19 0 61 60 95 71 51 17 242 118 260 137 8
10 32 25 52 36 20 10 47 29 60 43 l22 24 -21 5 c-19 5 -20 9 -10 25 9 15 8 22
-6 36 -20 20 -72 23 -222 11 -96 -8 -133 -16 -182 -42 -18 -9 -38 -14 -45 -11
-7 3 -39 -10 -70 -29 -31 -18 -59 -32 -61 -29 -3 2 -29 -8 -59 -24 -73 -39
-73 -39 -55 -12 10 13 17 34 17 46 0 13 10 29 24 38 29 20 79 89 81 114 1 10
16 33 33 51 18 18 39 45 48 61 13 27 13 30 -1 36 -9 3 -48 3 -86 0 -43 -4 -67
-2 -64 4 8 12 -47 12 -81 -1 -20 -8 -29 -8 -34 1 -17 26 -209 -60 -210 -94 0
-7 -7 -4 -15 7 -14 18 -16 17 -51 -18 -20 -20 -39 -34 -42 -31 -3 3 -23 -11
-43 -31 l-38 -37 -11 29 c-6 16 -13 36 -16 44 -4 9 -13 -7 -24 -40 l-17 -55
-4 35 -4 35 -28 -48 c-15 -26 -32 -45 -36 -43 -4 3 -27 -6 -50 -20 -41 -23
-43 -23 -38 -4 4 17 0 20 -25 20 -25 0 -29 3 -23 18 5 9 10 33 13 52 2 19 18
50 35 69 16 19 40 57 52 84 13 27 31 55 42 62 10 7 33 33 51 59 32 45 33 46
10 46 -20 0 -18 5 23 48 25 26 52 56 59 66 14 18 13 18 -9 11 -22 -7 -20 -2
17 41 29 34 38 50 28 52 -11 2 -8 14 15 50 29 45 29 47 9 50 l-20 3 20 26 c24
31 37 90 22 105 -13 13 -93 -14 -112 -38 -13 -15 -31 -19 -29 -6 1 4 1 18 0
31 l-1 25 -31 -30 c-18 -16 -44 -48 -60 -72 -27 -43 -28 -43 -40 -21 l-12 23
-19 -24 -19 -23 7 57 7 56 -34 0 c-19 -1 -59 -9 -89 -20 -71 -25 -70 -25 -70
10 0 17 -4 30 -8 30 -4 0 -33 -22 -64 -50 -61 -55 -68 -58 -68 -34 0 21 -95
-58 -129 -108 -27 -38 -41 -47 -41 -25 0 6 -5 19 -10 27 -7 12 -13 11 -35 -10
-15 -14 -34 -38 -42 -54 -11 -21 -17 -25 -23 -16 -5 8 -10 2 -15 -19 -14 -65
-20 -34 -17 92 3 128 3 131 -16 114 -26 -24 -32 -21 -32 16 0 39 -17 104 -30
112 -4 3 -31 -17 -60 -45z m-353 -772 c-3 -7 -5 -2 -5 12 0 14 2 19 5 13 2 -7
2 -19 0 -25z m-386 -1880 c-26 -11 -37 -8 -19 5 11 9 14 18 7 28 -5 8 -9 19
-9 24 0 6 8 -3 18 -20 17 -27 17 -31 3 -37z m-17 -66 c-7 -2 -22 2 -34 8 -17
9 -19 14 -9 26 11 13 15 12 34 -8 15 -16 18 -24 9 -26z m-3171 -137 c-9 -19
-18 -33 -21 -31 -4 5 26 66 33 66 3 0 -3 -16 -12 -35z m-66 -227 c-3 -7 -5 -2
-5 12 0 14 2 19 5 13 2 -7 2 -19 0 -25z m552 -1219 c-6 -19 -12 -89 -13 -157
l-3 -123 -78 -75 c-43 -41 -79 -74 -81 -74 -2 0 -4 28 -4 62 0 67 22 206 28
172 1 -11 -1 -39 -6 -62 -15 -64 2 -50 36 31 44 106 123 269 128 265 2 -3 -1
-20 -7 -39z m-233 -408 c26 -67 27 -66 -20 -119 -30 -34 -36 -13 -35 138 1
134 1 135 16 90 8 -25 26 -74 39 -109z m300 -96 c18 -38 46 -93 63 -122 l31
-52 -63 -47 c-119 -91 -246 -205 -350 -314 -57 -61 -107 -110 -110 -110 -4 0
-11 18 -17 41 -8 30 -8 44 1 55 8 9 9 34 5 76 -6 49 -3 72 10 103 l17 40 13
-45 c7 -25 16 -58 20 -75 7 -25 9 -18 15 45 3 41 10 93 14 114 6 30 5 37 -4
31 -20 -12 13 45 60 106 24 30 88 103 143 162 95 103 101 108 110 85 5 -12 24
-54 42 -93z m325 -388 c0 -4 -33 -36 -73 -70 -100 -85 -107 -97 -60 -97 l27
-1 -34 -29 c-19 -16 -67 -44 -107 -62 -41 -18 -74 -36 -74 -40 0 -5 23 -8 50
-8 99 0 235 64 358 168 l64 54 37 -19 c20 -11 63 -30 96 -43 33 -13 62 -25 64
-26 6 -5 -39 -42 -99 -81 -71 -46 -259 -238 -330 -336 -30 -42 -59 -77 -65
-77 -5 0 -32 9 -60 19 -47 18 -50 21 -59 65 -8 43 -26 65 -26 32 0 -22 -45
-66 -67 -66 -11 0 -41 -7 -67 -16 -26 -9 -49 -14 -52 -11 -2 2 -7 28 -11 57
-4 37 -3 51 5 46 6 -3 15 9 22 31 42 131 150 341 192 372 38 29 253 150 261
148 5 -2 8 -6 8 -10z m564 -387 c-27 -12 -43 -12 -25 0 8 5 22 9 30 9 10 0 8
-3 -5 -9z m1606 -327 c13 -15 12 -15 -8 -4 -24 12 -29 21 -14 21 5 0 15 -7 22
-17z m-1976 -115 c-8 -24 -16 -52 -18 -63 -4 -18 -5 -18 -6 2 -2 40 -20 35
-27 -7 -10 -60 -17 -41 -9 23 6 48 11 56 38 70 18 9 33 16 34 16 1 1 -4 -18
-12 -41z m3115 -72 c0 -5 -7 -3 -15 4 -8 7 -15 22 -15 34 1 20 2 20 15 -4 8
-14 14 -29 15 -34z m-1034 -148 c7 -40 13 -86 13 -103 0 -26 -1 -27 -10 -12
-7 12 -17 16 -31 11 -20 -6 -20 -3 -15 42 14 108 20 144 25 140 3 -3 11 -38
18 -78z m522 -49 c-12 -10 -24 -16 -25 -15 -2 1 7 31 20 67 l22 64 3 -49 c3
-42 0 -53 -20 -67z m-2646 44 c7 -9 7 -13 0 -13 -13 0 -22 25 -21 53 2 19 2
19 6 -3 3 -14 10 -31 15 -37z m1879 5 c11 -21 11 -22 -4 -9 -10 7 -17 17 -17
22 0 15 9 10 21 -13z m-1821 -82 c6 -22 13 -48 16 -56 2 -9 -2 -7 -12 5 -15
19 -16 15 -9 -50 10 -96 -1 -79 -14 22 -6 45 -13 93 -17 107 -5 21 -3 25 10
20 9 -3 21 -25 26 -48z m1548 -137 c-6 -16 -12 -28 -14 -26 -5 5 13 57 20 57
3 0 0 -14 -6 -31z m432 7 c0 -15 -14 -35 -21 -30 -15 9 -10 34 6 34 8 0 15 -2
15 -4z m-1907 -100 c4 4 7 16 7 27 0 11 2 18 5 15 3 -3 3 -25 -1 -48 l-7 -43
-19 24 c-10 13 -28 38 -40 54 l-21 30 35 -33 c19 -18 37 -29 41 -26z m1639
-103 c9 -10 23 -32 32 -50 25 -50 193 -241 228 -259 25 -13 36 -14 51 -5 17
11 18 10 12 -11 -13 -43 -89 -169 -141 -232 -61 -74 -134 -130 -212 -162 -56
-23 -112 -33 -84 -15 12 7 7 98 -13 218 -4 25 0 37 18 55 13 13 27 31 30 41 5
14 0 17 -35 17 -23 0 -39 3 -35 6 8 9 -26 72 -58 109 -33 37 -30 62 18 165 35
77 60 106 105 127 39 17 67 15 84 -4z m-4857 -663 c13 -6 15 -9 5 -9 -8 0 -22
4 -30 9 -18 12 -2 12 25 0z m-1395 -816 c6 -14 10 -28 10 -32 0 -10 -101 -74
-107 -69 -7 8 27 80 49 104 28 29 36 29 48 -3z m6482 -190 c62 -36 127 -76
143 -87 53 -37 145 -112 145 -119 0 -4 -15 -2 -32 3 -47 13 -89 11 -107 -5
-45 -41 -211 85 -251 190 -19 52 -25 84 -16 84 3 0 56 -30 118 -66z m1791
-1321 c42 -99 104 -309 94 -319 -2 -2 -37 18 -78 45 -41 27 -87 53 -102 57
-26 6 -28 10 -22 38 3 17 9 101 12 186 l5 154 23 -26 c12 -14 43 -75 68 -135z
m-5800 -280 c-7 -2 -21 -2 -30 0 -10 3 -4 5 12 5 17 0 24 -2 18 -5z m-46 -35
c-3 -8 -6 -5 -6 6 -1 11 2 17 5 13 3 -3 4 -12 1 -19z m366 -44 c-1 -15 -10
-35 -19 -43 -15 -15 -16 -15 -11 0 4 13 1 15 -13 12 -14 -4 -21 3 -29 33 -6
20 -8 41 -5 45 2 4 21 2 42 -5 32 -12 37 -17 35 -42z m4488 -61 c44 -46 69
-83 69 -100 0 -18 -90 -73 -119 -73 -24 0 -24 0 -5 -15 18 -14 17 -14 -11 -6
-16 5 -36 11 -43 13 -9 2 -5 14 14 38 23 32 25 41 20 100 -3 36 -8 78 -12 94
l-7 29 29 -20 c16 -12 45 -39 65 -60z m-5787 27 c11 0 33 -8 48 -18 l27 -18
-22 -44 c-12 -25 -29 -45 -37 -46 -33 -1 -68 27 -84 66 -9 22 -20 40 -26 40
-11 0 -14 33 -4 43 4 3 22 0 41 -8 20 -8 45 -15 57 -15z m564 -85 c2 -31 -1
-36 -40 -56 -43 -22 -108 -34 -108 -19 0 17 37 52 85 80 28 16 52 29 55 29 3
1 7 -15 8 -34z m4037 -106 c-22 -4 -53 -7 -70 -7 -26 1 -24 2 10 8 22 4 54 7
70 7 25 1 23 -1 -10 -8z m1052 -5 c-3 -3 -12 -4 -19 -1 -8 3 -5 6 6 6 11 1 17
-2 13 -5z m-1160 -10 c-3 -3 -12 -4 -19 -1 -8 3 -5 6 6 6 11 1 17 -2 13 -5z
m-64 -11 c-7 -2 -19 -2 -25 0 -7 3 -2 5 12 5 14 0 19 -2 13 -5z m617 -38 c-14
-8 -29 -14 -35 -14 -5 0 1 6 15 14 14 8 30 14 35 14 6 0 -1 -6 -15 -14z m980
-95 c0 -13 -1 -13 -10 0 -5 8 -10 22 -10 30 0 13 1 13 10 0 5 -8 10 -22 10
-30z m-3804 -115 c87 -35 134 -63 134 -80 0 -10 -23 -5 -82 21 -245 105 -286
151 -52 59z m3659 35 c-9 -14 -79 -49 -144 -71 -82 -28 -86 -22 -6 10 39 15
88 37 110 49 47 25 48 25 40 12z m-3414 -131 c77 -46 91 -61 27 -28 -24 12
-56 22 -72 23 -23 1 -30 6 -31 24 -1 12 0 22 2 22 3 0 36 -19 74 -41z"/>
<path d="M2712 9903 c-10 -4 -7 -12 11 -32 14 -14 27 -35 29 -46 5 -31 33 -29
72 5 43 38 45 57 10 70 -27 10 -100 12 -122 3z"/>
<path d="M3880 6630 c8 -5 22 -9 30 -9 10 0 8 3 -5 9 -27 12 -43 12 -25 0z"/>
<path d="M1958 5543 c6 -2 18 -2 25 0 6 3 1 5 -13 5 -14 0 -19 -2 -12 -5z"/>
<path d="M1815 5530 c-25 -11 1 -11 35 0 20 6 21 8 5 8 -11 0 -29 -3 -40 -8z"/>
<path d="M1750 5505 c-14 -8 -20 -14 -15 -14 6 0 21 6 35 14 14 8 21 14 15 14
-5 0 -21 -6 -35 -14z"/>
<path d="M3435 5490 c77 -5 155 -13 174 -19 19 -6 37 -9 39 -7 13 14 -92 29
-213 31 l-140 3 140 -8z"/>
<path d="M3238 5483 c6 -2 18 -2 25 0 6 3 1 5 -13 5 -14 0 -19 -2 -12 -5z"/>
<path d="M7098 4123 c7 -3 16 -2 19 1 4 3 -2 6 -13 5 -11 0 -14 -3 -6 -6z"/>
<path d="M231 3434 c-12 -15 -21 -36 -20 -48 0 -20 1 -20 8 -1 5 12 8 -2 8
-40 0 -33 6 -73 13 -90 12 -30 12 -30 21 -7 6 16 4 41 -6 77 -12 39 -13 63 -6
94 5 22 7 41 6 41 -2 0 -13 -12 -24 -26z"/>
<path d="M418 3263 c-9 -10 -23 -34 -33 -53 l-17 -35 33 31 c19 18 44 37 57
43 12 7 22 16 22 21 0 17 -46 11 -62 -7z"/>
<path d="M290 3256 c0 -2 7 -9 15 -16 12 -10 15 -10 15 4 0 9 -7 16 -15 16 -8
0 -15 -2 -15 -4z"/>
<path d="M957 3155 c-75 -76 -127 -168 -158 -280 -12 -44 -26 -83 -31 -86 -7
-4 -7 -9 0 -13 5 -3 19 22 32 57 32 89 90 195 157 284 96 128 96 135 0 38z"/>
<path d="M300 3123 c1 -16 7 -39 14 -52 l13 -24 12 33 c13 40 14 63 2 55 -5
-3 -12 -1 -16 5 -12 19 -25 10 -25 -17z"/>
<path d="M640 2965 c0 -5 5 -17 10 -25 5 -8 10 -10 10 -5 0 6 -5 17 -10 25 -5
8 -10 11 -10 5z"/>
<path d="M743 2893 c-18 -7 -16 -33 2 -33 8 0 15 9 15 20 0 11 -1 20 -2 19 -2
0 -9 -3 -15 -6z"/>
<path d="M1001 2804 c0 -11 3 -14 6 -6 3 7 2 16 -1 19 -3 4 -6 -2 -5 -13z"/>
<path d="M982 2730 c0 -14 2 -19 5 -12 2 6 2 18 0 25 -3 6 -5 1 -5 -13z"/>
<path d="M1005 2704 c-12 -19 -19 -23 -25 -14 -9 15 -16 -13 -24 -95 -4 -38
-3 -53 3 -40 6 15 10 -3 16 -63 7 -82 7 -83 27 -65 17 15 18 18 4 21 -24 5
-22 155 3 227 11 30 18 55 16 55 -1 0 -10 -12 -20 -26z"/>
<path d="M968 2325 c2 -16 6 -32 8 -34 5 -6 24 10 35 31 10 19 9 20 -14 16
-15 -3 -28 0 -30 6 -2 6 -2 -2 1 -19z"/>
</g>
</svg>
